<svg width="126" height="115" viewBox="0 0 126 115" fill="none" xmlns="http://www.w3.org/2000/svg">
<path d="M47.2229 44.2131L9.77174 52.8746C9.21961 53.0292 8.62876 52.9591 8.12809 52.6797C7.62743 52.4003 7.25759 51.9342 7.09928 51.3832L6.67876 49.5617C6.57956 48.9962 6.70783 48.4144 7.03565 47.9431C7.36347 47.4717 7.86427 47.149 8.42896 47.0452L45.8763 38.3804C46.4286 38.2261 47.0196 38.2965 47.5202 38.5763C48.0208 38.8562 48.3903 39.3227 48.5482 39.874L48.9691 41.6974C49.0682 42.2622 48.9403 42.8433 48.6133 43.3143C48.2863 43.7854 47.7866 44.1084 47.2229 44.2131ZM8.74193 48.4008C8.65129 48.417 8.56474 48.4509 8.48724 48.5007C8.40973 48.5504 8.3428 48.6149 8.29028 48.6905C8.23775 48.7662 8.20066 48.8514 8.18112 48.9414C8.16159 49.0314 8.16 49.1244 8.17644 49.215L8.59696 51.0364C8.622 51.1249 8.66425 51.2076 8.72128 51.2798C8.77832 51.352 8.84902 51.4123 8.92935 51.4571C9.00968 51.502 9.09806 51.5305 9.18944 51.5412C9.28082 51.5519 9.37341 51.5444 9.46192 51.5193L46.9097 42.8565C47.0003 42.8403 47.0868 42.8063 47.1643 42.7566C47.2419 42.7069 47.3088 42.6424 47.3613 42.5667C47.4138 42.4911 47.4509 42.4058 47.4705 42.3159C47.49 42.2259 47.4916 42.1329 47.4751 42.0423L47.0548 40.2219C47.0298 40.1333 46.9876 40.0506 46.9305 39.9784C46.8735 39.9062 46.8028 39.846 46.7225 39.8011C46.6421 39.7563 46.5538 39.7277 46.4624 39.717C46.371 39.7064 46.2784 39.7138 46.1899 39.7389L8.74193 48.4008Z" fill="black" stroke="black"/>
<path d="M57.3005 100.575L24.7618 108.106C23.7877 108.33 22.7644 108.158 21.917 107.628C21.0696 107.097 20.4675 106.252 20.2432 105.278L8.27096 53.2837L48.1477 44.053L60.1221 96.0478C60.3462 97.0222 60.1752 98.0457 59.6463 98.8943C59.1175 99.7428 58.274 100.347 57.3005 100.575ZM10.1211 54.4415L21.7486 104.929C21.8808 105.504 22.2358 106.003 22.7356 106.316C23.2354 106.629 23.8391 106.731 24.414 106.599L56.9526 99.0686C57.5273 98.9343 58.0253 98.5777 58.3376 98.077C58.6499 97.5762 58.751 96.9721 58.6188 96.3969L46.9913 45.909L10.1211 54.4415Z" fill="black" stroke="black"/>
<path d="M44.4062 41.3599L12.0761 48.8422L10.3414 41.3285C10.1994 40.7205 10.3044 40.0809 10.6333 39.5503C10.9623 39.0196 11.4884 38.6411 12.0961 38.4978L39.8635 32.0698C40.4714 31.9324 41.1091 32.0421 41.6363 32.3746C42.1635 32.7072 42.537 33.2354 42.6749 33.8433L44.4062 41.3599ZM13.2416 46.9585L42.5341 40.1784L41.1531 34.1967C41.107 33.9935 40.9822 33.8169 40.806 33.7057C40.6298 33.5946 40.4167 33.5578 40.2135 33.6037L12.4417 40.0306C12.2389 40.0788 12.0634 40.2054 11.9537 40.3827C11.844 40.56 11.809 40.7736 11.8564 40.9766L13.2416 46.9585Z" fill="black" stroke="black"/>
<path d="M39.5102 33.7672L13.1564 39.8667L14.5361 34.6693C14.4951 33.758 15.4246 32.8977 16.856 32.5663L32.9926 28.8306C34.4242 28.5001 35.6354 28.8641 35.9972 29.7024L39.5102 33.7672ZM15.3364 37.7488L36.6258 32.8164L34.597 30.4711L34.5745 30.3737C34.1751 30.2465 33.7468 30.2414 33.3444 30.3589L17.2076 34.0936C16.7926 34.1646 16.4083 34.3581 16.1041 34.6491L16.1266 34.7466L15.3364 37.7488Z" fill="black" stroke="black"/>
<path d="M15.3345 41.1597C15.1361 41.2055 14.9276 41.1725 14.753 41.0677C14.5784 40.9629 14.4513 40.7945 14.3985 40.5979C14.3457 40.4012 14.3712 40.1918 14.4697 40.0136C14.5682 39.8354 14.7321 39.7024 14.9267 39.6425L37.3124 32.661C37.4106 32.6306 37.5137 32.62 37.616 32.6297C37.7183 32.6394 37.8176 32.6692 37.9083 32.7174C37.999 32.7656 38.0793 32.8313 38.1445 32.9106C38.2097 32.99 38.2586 33.0814 38.2883 33.1797C38.3505 33.378 38.3315 33.5929 38.2356 33.7773C38.1396 33.9616 37.9744 34.1004 37.7762 34.1631L15.3903 41.1437L15.3345 41.1597Z" fill="black" stroke="black"/>
<path d="M16.1506 44.7035C15.9541 44.7485 15.7479 44.7164 15.5745 44.6138C15.4011 44.5111 15.2737 44.3458 15.2186 44.152C15.1636 43.9582 15.1851 43.7506 15.2788 43.5722C15.3724 43.3937 15.531 43.2581 15.7218 43.1932L37.9972 35.6983C38.195 35.6323 38.4109 35.6477 38.5974 35.7409C38.7839 35.8341 38.9257 35.9976 38.9917 36.1953C39.0576 36.3931 39.0423 36.609 38.949 36.7954C38.8558 36.9819 38.6923 37.1237 38.4945 37.1897L16.224 44.6834C16.1999 44.6914 16.1754 44.6981 16.1506 44.7035Z" fill="black" stroke="black"/>
<path d="M16.5404 47.0587C16.3591 47.1085 16.1657 47.0883 15.9987 47.0022C15.8316 46.916 15.703 46.7702 15.6385 46.5937C15.6132 46.5 15.6067 46.4022 15.6195 46.3059C15.6323 46.2097 15.664 46.117 15.713 46.0331C15.7619 45.9492 15.827 45.8759 15.9045 45.8174C15.9819 45.7589 16.0703 45.7164 16.1643 45.6923L38.4574 38.9097C38.6439 38.8443 38.8486 38.8549 39.0273 38.9393C39.206 39.0236 39.3444 39.1749 39.4124 39.3604C39.4377 39.4541 39.4442 39.5519 39.4314 39.6482C39.4186 39.7444 39.3869 39.8371 39.3379 39.921C39.289 40.0049 39.2239 40.0782 39.1464 40.1367C39.0689 40.1952 38.9806 40.2377 38.8866 40.2618L16.5964 47.0437L16.5404 47.0587Z" fill="black" stroke="black"/>
<path d="M32.8685 30.4728L17.6846 33.9864L15.2454 23.3946L30.4291 19.88L32.8685 30.4728ZM18.8494 32.0998L30.9983 29.295L29.2606 21.7686L17.1173 24.5751L18.8494 32.0998Z" fill="black" stroke="black"/>
<path d="M28.2215 22.0067L18.1604 24.3356L17.2886 20.5592C17.0584 19.5785 17.2269 18.5466 17.7571 17.6901C18.2873 16.8336 19.1358 16.2226 20.1163 15.9914L22.8158 15.3681C23.7967 15.1466 24.8255 15.3235 25.6761 15.8601C26.5266 16.3968 27.1292 17.2491 27.3516 18.2299L28.2215 22.0067ZM19.3259 22.4519L26.3505 20.8301L25.833 18.5887C25.7691 18.3028 25.6494 18.0323 25.4808 17.7927C25.3123 17.5531 25.0981 17.3491 24.8507 17.1923C24.6032 17.0355 24.3273 16.929 24.0387 16.8789C23.75 16.8288 23.4543 16.8361 23.1685 16.9003L20.469 17.5236C19.8936 17.6602 19.3959 18.0192 19.0847 18.522C18.7735 19.0248 18.6741 19.6304 18.8085 20.2063L19.3259 22.4519Z" fill="black" stroke="black"/>
<path d="M98.876 32.8099C105.977 32.8099 111.271 23.4521 111.271 15.0856C111.271 6.71905 106.175 1 98.876 1C91.5765 1 86.4805 6.80007 86.4805 15.1126C86.4805 23.4251 91.7775 32.8099 98.876 32.8099ZM98.876 2.77433C105.143 2.77433 109.523 7.83626 109.523 15.0946C109.523 23.4521 104.453 31.0085 98.876 31.0085C93.2988 31.0085 88.2288 23.4521 88.2288 15.1126C88.2288 7.86226 92.6087 2.80133 98.876 2.80133V2.77433Z" fill="black" stroke="black"/>
<path d="M108.536 30.9337C108.296 30.9337 108.067 31.0288 107.898 31.1981C107.728 31.3674 107.633 31.597 107.633 31.8364C107.633 32.0758 107.728 32.3054 107.898 32.4747C108.067 32.6439 108.296 32.739 108.536 32.739C113.257 32.739 116.816 34.1113 119.114 36.8198C122.333 40.6205 122.253 46.0915 122.101 48.0859H74.8081C74.6561 46.0905 74.576 40.6155 77.7947 36.8148C80.0951 34.1063 83.6429 32.734 88.3728 32.734C88.6122 32.734 88.8418 32.6389 89.0111 32.4697C89.1804 32.3004 89.2755 32.0708 89.2755 31.8314C89.2755 31.592 89.1804 31.3624 89.0111 31.1931C88.8418 31.0238 88.6122 30.9287 88.3728 30.9287C83.0968 30.9287 79.0819 32.518 76.4354 35.6506C71.9195 40.9856 73.0827 48.795 73.1268 49.1291L73.2428 49.8872H123.653L123.769 49.1291C123.823 48.795 124.976 41.0046 120.46 35.6506C117.827 32.523 113.803 30.9337 108.536 30.9337Z" fill="black" stroke="black"/>
<path d="M70.9556 101.044C70.846 100.858 70.786 100.647 70.7814 100.431C70.7767 100.216 70.8275 100.002 70.9289 99.8121C71.0961 99.5385 71.3649 99.3422 71.6764 99.2661C71.9879 99.1899 72.3169 99.2402 72.5915 99.4057C83.8202 106.256 95.57 105.652 103.3 97.8005C111.442 89.5416 112.417 76.1945 105.812 63.7247L105.574 63.2769C105.491 63.1378 105.436 62.9834 105.414 62.8229C105.392 62.6624 105.402 62.499 105.444 62.3425C105.486 62.186 105.56 62.0396 105.66 61.9121C105.76 61.7845 105.884 61.6783 106.026 61.5999C106.319 61.465 106.653 61.4483 106.958 61.553C107.264 61.6578 107.517 61.8761 107.666 62.1625L107.903 62.6103C115.024 76.0507 113.925 90.5165 105.036 99.5566C96.486 108.225 83.6756 109.013 71.4806 101.527C71.2521 101.436 71.0652 101.264 70.9556 101.044Z" fill="black"/>
<path d="M102.694 71.2255C102.595 71.019 102.55 70.7905 102.565 70.5618C102.579 70.3331 102.651 70.1119 102.775 69.9191C103.648 68.3935 104.165 66.6901 104.287 64.9364C104.436 63.8514 104.676 62.781 105.005 61.7367C105.065 61.5435 105.171 61.3678 105.314 61.2243C105.456 61.0808 105.631 60.9737 105.824 60.9122C106.016 60.85 106.219 60.8326 106.418 60.8612C106.618 60.8898 106.808 60.9636 106.974 61.0771C108.107 61.9314 109.117 62.7539 110.131 63.574C111.145 64.394 112.159 65.2146 113.208 65.9198C113.349 66.016 113.468 66.14 113.559 66.2843C113.65 66.4286 113.71 66.59 113.736 66.7585C113.762 66.927 113.752 67.099 113.709 67.2639C113.666 67.4287 113.589 67.5828 113.483 67.7167C113.388 67.8577 113.265 67.9774 113.121 68.0682C112.978 68.1591 112.817 68.2191 112.648 68.2446C112.48 68.27 112.309 68.2602 112.145 68.2159C111.981 68.1716 111.827 68.0937 111.695 67.9871C110.562 67.1328 109.552 66.3103 108.538 65.4903L107.017 64.2599C106.95 64.6029 106.908 64.9501 106.89 65.2991C106.736 67.3997 106.098 69.4362 105.024 71.2483C104.938 71.3924 104.823 71.5169 104.685 71.6137C104.548 71.7105 104.392 71.7774 104.228 71.8102C104.063 71.8429 103.893 71.8407 103.729 71.8037C103.566 71.7667 103.411 71.6958 103.277 71.5955C103.153 71.605 103.029 71.5741 102.924 71.5074C102.819 71.4407 102.738 71.3418 102.694 71.2255Z" fill="black"/>
<path d="M13.161 68.3509C13.161 68.3509 25.885 72.3319 35.0355 63.2895C44.1861 54.2471 49.0538 55.1363 49.0538 55.1363L59.2932 99.5805L22.3235 108.131L21.5914 104.96L13.161 68.3509Z" fill="black"/>
</svg>
