<svg width="93" height="133" viewBox="0 0 93 133" fill="none" xmlns="http://www.w3.org/2000/svg">
<path d="M53.8479 45.6229H3.94795C3.16687 45.6221 2.418 45.3115 1.86569 44.7592C1.31338 44.2069 1.00275 43.458 1.00195 42.6769V40.001C1.00275 39.2199 1.31338 38.471 1.86569 37.9187C2.418 37.3664 3.16687 37.0557 3.94795 37.0549H53.8479C54.629 37.0557 55.3779 37.3664 55.9302 37.9187C56.4825 38.471 56.7932 39.2199 56.7939 40.001V42.6769C56.7932 43.458 56.4825 44.2069 55.9302 44.7592C55.3779 45.3115 54.629 45.6221 53.8479 45.6229ZM3.94795 39.049C3.69528 39.0492 3.45303 39.1497 3.27437 39.3284C3.0957 39.507 2.99521 39.7493 2.99495 40.002V42.678C2.99521 42.9306 3.0957 43.1728 3.27437 43.3515C3.45303 43.5302 3.69528 43.6307 3.94795 43.6309H53.8479C54.1006 43.6307 54.3429 43.5302 54.5215 43.3515C54.7002 43.1728 54.8007 42.9306 54.8009 42.678V40.002C54.8007 39.7493 54.7002 39.507 54.5215 39.3284C54.3429 39.1497 54.1006 39.0492 53.8479 39.049H3.94795Z" fill="black" stroke="black"/>
<path d="M4.73706 59.0499C4.73706 59.0499 19.6679 68.2349 33.8669 59.0499C48.0659 49.8649 53.967 52.5357 53.967 52.5357V114.624H4.73804V59.0499H4.73706Z" fill="black"/>
<path d="M50.461 116.834H7.33296C6.0437 116.833 4.8077 116.32 3.89606 115.408C2.98441 114.496 2.47156 113.26 2.46997 111.971V43.2061H55.324V111.971C55.3224 113.26 54.8095 114.496 53.8979 115.408C52.9862 116.32 51.7502 116.833 50.461 116.834ZM4.46097 45.1991V111.971C4.46176 112.732 4.7645 113.462 5.30275 114C5.84099 114.539 6.57078 114.841 7.33197 114.842H50.459C51.2202 114.841 51.9499 114.539 52.4882 114C53.0264 113.462 53.3292 112.732 53.33 111.971V45.1991H4.46097Z" fill="black" stroke="black"/>
<path d="M50.1119 39.1058H7.68286V29.3318C7.68471 28.5386 8.00064 27.7784 8.56154 27.2175C9.12243 26.6566 9.88265 26.3407 10.6759 26.3389H47.1179C47.9113 26.3405 48.6717 26.6562 49.2328 27.2172C49.794 27.7781 50.11 28.5385 50.1119 29.3318V39.1058ZM9.67587 37.1129H48.1189V29.3318C48.1189 29.0666 48.0135 28.8123 47.826 28.6248C47.6384 28.4372 47.3841 28.3318 47.1189 28.3318H10.6759C10.4107 28.3318 10.1563 28.4372 9.96877 28.6248C9.78123 28.8123 9.67587 29.0666 9.67587 29.3318V37.1129Z" fill="black" stroke="black"/>
<path d="M46.19 28.374H11.604L14.814 22.351C15.025 21.214 16.429 20.417 18.308 20.417H39.485C41.363 20.417 42.768 21.217 42.979 22.351L46.19 28.374ZM14.925 26.381H42.87L41.015 22.9V22.779C40.5533 22.5077 40.0217 22.3789 39.487 22.409H18.309C17.774 22.3788 17.242 22.5075 16.78 22.779V22.9L14.925 26.381Z" fill="black" stroke="black"/>
<path d="M13.947 30.564C13.6983 30.5499 13.4638 30.4435 13.2894 30.2656C13.115 30.0877 13.0132 29.8512 13.0041 29.6022C12.995 29.3533 13.0791 29.1099 13.24 28.9197C13.4009 28.7295 13.627 28.6062 13.874 28.574L43.774 26.355C44.0242 26.3583 44.264 26.4552 44.4462 26.6266C44.6283 26.7981 44.7396 27.0316 44.7581 27.2811C44.7766 27.5306 44.7008 27.778 44.5459 27.9744C44.3909 28.1708 44.168 28.3019 43.921 28.342L14.021 30.561C13.996 30.563 13.976 30.564 13.947 30.564Z" fill="black" stroke="black"/>
<path d="M13.9459 35.1491C13.6981 35.1363 13.4639 35.0318 13.2889 34.856C13.1138 34.6802 13.0104 34.4455 12.9987 34.1977C12.987 33.9498 13.0678 33.7065 13.2255 33.5149C13.3832 33.3234 13.6064 33.1972 13.8519 33.1611L43.7519 30.2781C44.0018 30.2762 44.2434 30.368 44.429 30.5353C44.6146 30.7026 44.7309 30.9334 44.7548 31.1822C44.7788 31.4309 44.7087 31.6797 44.5585 31.8794C44.4082 32.0791 44.1886 32.2152 43.9429 32.2611L14.0429 35.1451C14.0107 35.1481 13.9783 35.1494 13.9459 35.1491Z" fill="black" stroke="black"/>
<path d="M13.947 39.0691C13.6983 39.0551 13.4638 38.9487 13.2894 38.7708C13.115 38.5929 13.0132 38.3563 13.0041 38.1073C12.995 37.8584 13.0791 37.615 13.24 37.4248C13.4009 37.2346 13.627 37.1114 13.874 37.0791L43.774 34.8601C43.9109 34.8379 44.0509 34.8444 44.1851 34.8792C44.3193 34.914 44.4448 34.9763 44.5537 35.0622C44.6625 35.148 44.7523 35.2556 44.8173 35.3781C44.8824 35.5005 44.9212 35.6351 44.9315 35.7734C44.9417 35.9117 44.9231 36.0506 44.8768 36.1812C44.8304 36.3119 44.7575 36.4316 44.6624 36.5326C44.5674 36.6335 44.4524 36.7136 44.3248 36.7677C44.1972 36.8219 44.0597 36.8489 43.921 36.8471L14.021 39.0661L13.947 39.0691Z" fill="black" stroke="black"/>
<path d="M38.8598 22.524H18.9338V8.74902H38.8598V22.524ZM20.9258 20.532H36.8668V10.742H20.9268L20.9258 20.532Z" fill="black" stroke="black"/>
<path d="M35.4978 10.742H22.2979V5.82996C22.2992 4.54919 22.8086 3.32131 23.7143 2.41577C24.6201 1.51023 25.8481 1.00106 27.1288 1H30.6709C31.9514 1.00159 33.179 1.51093 34.0844 2.41638C34.9899 3.32184 35.4993 4.54945 35.5009 5.82996L35.4978 10.742ZM24.2868 8.75H33.5049V5.83099C33.5038 5.07873 33.2044 4.35758 32.6724 3.82574C32.1404 3.2939 31.4191 2.99475 30.6669 2.99396H27.1248C26.3726 2.99475 25.6513 3.2939 25.1193 3.82574C24.5873 4.35758 24.2879 5.07873 24.2868 5.83099V8.75Z" fill="black" stroke="black"/>
<path d="M56.7909 126.691C65.522 126.691 72.5999 117.33 72.5999 105.782C72.5999 94.2343 65.522 84.873 56.7909 84.873C48.0599 84.873 40.9819 94.2343 40.9819 105.782C40.9819 117.33 48.0599 126.691 56.7909 126.691Z" fill="white"/>
<path d="M55.9019 107.354C55.7732 107.227 55.6708 107.076 55.6007 106.91C55.5306 106.743 55.4941 106.565 55.4934 106.384C55.4927 106.203 55.5278 106.024 55.5966 105.857C55.6654 105.69 55.7666 105.538 55.8944 105.41C56.0221 105.283 56.1739 105.182 56.341 105.113C56.508 105.044 56.6871 105.009 56.8677 105.01C57.0484 105.01 57.2271 105.047 57.3937 105.117C57.5602 105.187 57.7112 105.289 57.8379 105.418L63.1609 110.741L74.9349 99.128C76.0639 97.838 77.9999 99.773 76.8709 101.064L64.1279 113.641C63.8601 113.876 63.5161 114.005 63.1599 114.005C62.8037 114.005 62.4597 113.876 62.1919 113.641L55.9019 107.354Z" fill="black"/>
<path d="M66.3869 79.7729C71.6507 79.7729 76.7962 81.3338 81.1729 84.2582C85.5495 87.1826 88.9607 91.3391 90.9751 96.2022C92.9894 101.065 93.5165 106.416 92.4896 111.579C91.4627 116.742 88.9279 121.484 85.2059 125.206C81.4839 128.928 76.7417 131.463 71.5791 132.49C66.4165 133.516 61.0653 132.989 56.2022 130.975C51.3391 128.961 47.1826 125.55 44.2582 121.173C41.3338 116.796 39.7729 111.651 39.7729 106.387C39.7798 99.3306 42.586 92.5652 47.5756 87.5756C52.5652 82.586 59.3306 79.7798 66.3869 79.7729V79.7729ZM66.3869 82.5149C61.6655 82.5148 57.05 83.9147 53.1241 86.5376C49.1982 89.1606 46.1384 92.8888 44.3314 97.2508C42.5244 101.613 42.0515 106.413 42.9725 111.044C43.8935 115.674 46.167 119.928 49.5055 123.267C52.8441 126.605 57.0976 128.879 61.7284 129.8C66.3591 130.721 71.159 130.249 75.5211 128.442C79.8832 126.635 83.6116 123.575 86.2347 119.65C88.8579 115.724 90.2579 111.108 90.2579 106.387C90.2651 103.25 89.6525 100.143 88.4554 97.2433C87.2583 94.3439 85.5003 91.7095 83.2822 89.4914C81.0642 87.2732 78.4299 85.5151 75.5305 84.3179C72.6311 83.1207 69.5238 82.508 66.3869 82.5149Z" fill="black"/>
</svg>
