<svg width="93" height="133" viewBox="0 0 93 133" fill="none" xmlns="http://www.w3.org/2000/svg">
<path d="M53.679 45.6242H3.93599C3.15764 45.6231 2.41148 45.3135 1.8611 44.7631C1.31072 44.2127 1.00106 43.4666 1 42.6882V40.0212C1.00106 39.2428 1.31072 38.4967 1.8611 37.9463C2.41148 37.3959 3.15764 37.0863 3.93599 37.0852H53.679C54.4574 37.0863 55.2035 37.3959 55.7539 37.9463C56.3043 38.4967 56.6139 39.2428 56.615 40.0212V42.6882C56.6139 43.4666 56.3043 44.2127 55.7539 44.7631C55.2035 45.3135 54.4574 45.6231 53.679 45.6242ZM3.93599 39.0712C3.68411 39.0715 3.44264 39.1716 3.26454 39.3497C3.08644 39.5278 2.98626 39.7693 2.98599 40.0212V42.6882C2.98626 42.9401 3.08644 43.1816 3.26454 43.3597C3.44264 43.5378 3.68411 43.6379 3.93599 43.6382H53.679C53.9309 43.6379 54.1723 43.5378 54.3504 43.3597C54.5285 43.1816 54.6287 42.9401 54.629 42.6882V40.0212C54.6287 39.7693 54.5285 39.5278 54.3504 39.3497C54.1723 39.1716 53.9309 39.0715 53.679 39.0712H3.93599Z" fill="black" stroke="black"/>
<path d="M4.48999 100.298C4.48999 100.298 20.359 104.241 27.678 104.241C34.997 104.241 39.9101 98.3052 49.7351 97.5412C59.5601 96.7772 55.345 117.377 55.345 117.377L7.57715 115.619L4.48999 112.872V100.298Z" fill="black"/>
<path d="M50.3021 116.888H7.31308C6.0278 116.887 4.79561 116.375 3.88678 115.466C2.97795 114.558 2.46668 113.325 2.46509 112.04V43.4961H55.1501V112.04C55.1485 113.325 54.6372 114.558 53.7284 115.466C52.8196 116.375 51.5874 116.887 50.3021 116.888ZM4.45108 45.4821V112.04C4.45187 112.799 4.75366 113.526 5.29022 114.063C5.82678 114.6 6.55427 114.901 7.31308 114.902H50.3021C51.0609 114.901 51.7884 114.6 52.325 114.063C52.8615 113.526 53.1633 112.799 53.1641 112.04V45.4821H4.45108Z" fill="black" stroke="black"/>
<path d="M49.9539 39.0891H7.66089V29.346C7.66195 28.5552 7.97657 27.7971 8.53577 27.2379C9.09496 26.6787 9.85307 26.3641 10.6439 26.363H46.9689C47.7599 26.3638 48.5183 26.6783 49.0777 27.2375C49.6371 27.7968 49.9518 28.555 49.9529 29.346L49.9539 39.0891ZM9.6469 37.103H47.9669V29.347C47.9669 29.0818 47.8615 28.8274 47.674 28.6399C47.4865 28.4524 47.2321 28.347 46.9669 28.347H10.6439C10.3787 28.347 10.1243 28.4524 9.93678 28.6399C9.74925 28.8274 9.64389 29.0818 9.64389 29.347L9.6469 37.103Z" fill="black" stroke="black"/>
<path d="M46.0451 28.363H11.5701L14.7701 22.363C14.9801 21.229 16.3801 20.4351 18.2531 20.4351H39.3621C41.2341 20.4351 42.6351 21.23 42.8451 22.363L46.0451 28.363ZM14.8801 26.3771H42.7351L40.8861 22.907V22.787C40.4259 22.5166 39.896 22.3882 39.3631 22.418H18.2531C17.7198 22.388 17.1895 22.5164 16.7291 22.787V22.907L14.8801 26.3771Z" fill="black" stroke="black"/>
<path d="M13.9051 30.5682C13.6462 30.571 13.3964 30.4726 13.209 30.2939C13.0215 30.1153 12.9113 29.8704 12.9018 29.6117C12.8923 29.3529 12.9842 29.1007 13.158 28.9087C13.3318 28.7168 13.5737 28.6003 13.8321 28.5841L43.6321 26.3721C43.8948 26.3526 44.1545 26.4383 44.354 26.6103C44.5535 26.7822 44.6766 27.0264 44.6961 27.2891C44.7156 27.5518 44.6299 27.8115 44.4579 28.011C44.286 28.2106 44.0418 28.3336 43.7791 28.3531L13.9791 30.5651C13.9551 30.5681 13.9301 30.5682 13.9051 30.5682Z" fill="black" stroke="black"/>
<path d="M13.9051 35.1521C13.649 35.1534 13.4023 35.0558 13.2165 34.8795C13.0307 34.7032 12.9202 34.462 12.9081 34.2062C12.896 33.9504 12.9831 33.6997 13.1514 33.5067C13.3197 33.3136 13.556 33.1931 13.8111 33.1701L43.6111 30.2961C43.8733 30.2708 44.1347 30.3506 44.338 30.5181C44.5413 30.6856 44.6698 30.9269 44.6951 31.1891C44.7204 31.4513 44.6406 31.7128 44.4731 31.916C44.3056 32.1193 44.0643 32.2478 43.8021 32.2731L14.0011 35.1521C13.9691 35.1538 13.9371 35.1538 13.9051 35.1521Z" fill="black" stroke="black"/>
<path d="M13.9051 39.0772C13.6462 39.08 13.3964 38.9816 13.209 38.803C13.0215 38.6243 12.9113 38.3795 12.9018 38.1208C12.8923 37.862 12.9842 37.6097 13.158 37.4178C13.3318 37.2258 13.5737 37.1093 13.8321 37.0932L43.6321 34.8811C43.7622 34.8715 43.8929 34.8876 44.0167 34.9284C44.1406 34.9693 44.2552 35.0341 44.354 35.1193C44.4528 35.2044 44.5339 35.3082 44.5926 35.4247C44.6513 35.5412 44.6864 35.6681 44.6961 35.7982C44.7057 35.9283 44.6897 36.059 44.6488 36.1828C44.608 36.3067 44.5431 36.4213 44.4579 36.5201C44.3728 36.6189 44.269 36.6999 44.1525 36.7586C44.0361 36.8173 43.9092 36.8525 43.7791 36.8622L13.9791 39.0742L13.9051 39.0772Z" fill="black" stroke="black"/>
<path d="M38.739 22.4561H18.876V8.7251H38.739V22.4561ZM20.863 20.4701H36.753V10.7111H20.863V20.4701Z" fill="black" stroke="black"/>
<path d="M35.3841 10.7111H22.2271V5.8111C22.2284 4.53448 22.7361 3.31054 23.6388 2.40784C24.5415 1.50514 25.7654 0.997417 27.0421 0.996094H30.5731C31.8497 0.997417 33.0736 1.50514 33.9763 2.40784C34.879 3.31054 35.3867 4.53448 35.3881 5.8111L35.3841 10.7111ZM24.2091 8.7251H33.3971V5.81512C33.396 5.06542 33.0977 4.34671 32.5676 3.81659C32.0375 3.28647 31.3188 2.98818 30.5691 2.98712H27.0381C26.2882 2.98792 25.5692 3.28607 25.0389 3.81622C24.5085 4.34638 24.2101 5.06524 24.2091 5.81512V8.7251Z" fill="black" stroke="black"/>
<path d="M56.9079 126.711C65.6114 126.711 72.6669 117.38 72.6669 105.869C72.6669 94.3581 65.6114 85.0269 56.9079 85.0269C48.2045 85.0269 41.1489 94.3581 41.1489 105.869C41.1489 117.38 48.2045 126.711 56.9079 126.711Z" fill="white"/>
<path d="M76.4388 97.5618C76.3329 97.4558 76.2071 97.3716 76.0686 97.3143C75.9301 97.2569 75.7817 97.2274 75.6318 97.2274C75.4819 97.2274 75.3335 97.2569 75.1951 97.3143C75.0566 97.3716 74.9308 97.4558 74.8248 97.5618L66.4868 105.907L58.1458 97.5657C58.0413 97.4535 57.9152 97.3634 57.7751 97.3009C57.635 97.2384 57.4838 97.2048 57.3304 97.2021C57.177 97.1993 57.0246 97.2275 56.8824 97.2849C56.7401 97.3423 56.6109 97.4279 56.5025 97.5364C56.394 97.6449 56.3085 97.7741 56.251 97.9163C56.1936 98.0586 56.1654 98.2109 56.1682 98.3643C56.1709 98.5176 56.2045 98.6689 56.267 98.809C56.3295 98.9491 56.4195 99.0752 56.5318 99.1797L64.8728 107.521L56.5318 115.862C56.3303 116.078 56.2206 116.365 56.2259 116.66C56.2312 116.956 56.351 117.238 56.5602 117.447C56.7693 117.657 57.0515 117.776 57.3473 117.782C57.643 117.787 57.9293 117.677 58.1458 117.476L66.4868 109.135L74.8278 117.476C74.9324 117.588 75.0584 117.678 75.1985 117.741C75.3386 117.803 75.4899 117.837 75.6433 117.839C75.7967 117.842 75.949 117.814 76.0913 117.757C76.2335 117.699 76.3627 117.614 76.4712 117.505C76.5797 117.397 76.6652 117.267 76.7226 117.125C76.7801 116.983 76.8083 116.831 76.8055 116.677C76.8028 116.524 76.7692 116.373 76.7067 116.232C76.6442 116.092 76.5541 115.966 76.4418 115.862L68.1008 107.521L76.4418 99.1797C76.5481 99.0735 76.6324 98.9472 76.6898 98.8083C76.7472 98.6694 76.7766 98.5204 76.7763 98.3701C76.776 98.2198 76.7461 98.071 76.6882 97.9323C76.6302 97.7936 76.5455 97.6677 76.4388 97.5618Z" fill="black"/>
<path d="M66.4718 79.9438C71.7186 79.9438 76.8475 81.4997 81.21 84.4146C85.5725 87.3296 88.9727 91.4727 90.9805 96.32C92.9884 101.167 93.5137 106.501 92.4901 111.647C91.4665 116.793 88.94 121.52 85.23 125.23C81.52 128.94 76.7931 131.467 71.6472 132.49C66.5013 133.514 61.1674 132.988 56.32 130.981C51.4727 128.973 47.3296 125.573 44.4146 121.21C41.4997 116.848 39.9438 111.719 39.9438 106.472C39.951 99.4384 42.7482 92.695 47.7216 87.7216C52.695 82.7482 59.4384 79.951 66.4718 79.9438V79.9438ZM66.4718 82.6768C61.7647 82.6768 57.1632 84.0727 53.2493 86.6879C49.3354 89.303 46.2849 93.0201 44.4835 97.369C42.6821 101.718 42.2108 106.503 43.1292 111.12C44.0475 115.737 46.3142 119.977 49.6427 123.306C52.9712 126.634 57.2119 128.901 61.8287 129.82C66.4454 130.738 71.2308 130.267 75.5797 128.465C79.9286 126.664 83.6456 123.613 86.2608 119.699C88.876 115.786 90.2718 111.184 90.2718 106.477C90.2796 103.349 89.6693 100.251 88.476 97.3598C87.2827 94.4687 85.5299 91.8419 83.3183 89.6304C81.1068 87.4188 78.48 85.666 75.5889 84.4727C72.6978 83.2794 69.5995 82.6691 66.4718 82.6768Z" fill="black"/>
</svg>
