<svg width="111" height="131" viewBox="0 0 111 131" fill="none" xmlns="http://www.w3.org/2000/svg">
<path d="M100.613 35.6131L72.4194 25.9053C71.9784 25.7529 71.6158 25.4317 71.4113 25.0124C71.2067 24.593 71.1769 24.1096 71.3283 23.6682L71.8489 22.1563C72.0013 21.7153 72.3224 21.3527 72.7418 21.1482C73.1612 20.9436 73.6446 20.9138 74.086 21.0652L102.279 30.773C102.72 30.9254 103.083 31.2465 103.288 31.6659C103.492 32.0853 103.522 32.5687 103.371 33.0101L102.85 34.5229C102.697 34.9637 102.376 35.326 101.957 35.5303C101.537 35.7347 101.054 35.7644 100.613 35.6131ZM73.6982 22.1913C73.5555 22.1421 73.399 22.1516 73.2632 22.2177C73.1275 22.2838 73.0235 22.401 72.974 22.5437L72.4531 24.0566C72.4039 24.1995 72.4135 24.3561 72.4798 24.492C72.546 24.6279 72.6636 24.7319 72.8065 24.7811L101 34.4889C101.143 34.5378 101.299 34.528 101.435 34.4617C101.571 34.3954 101.674 34.2779 101.724 34.1352L102.244 32.6223C102.293 32.4796 102.284 32.3234 102.218 32.1878C102.151 32.0523 102.034 31.9484 101.892 31.8991L73.6982 22.1913Z" fill="black" stroke="black" stroke-width="2"/>
<path d="M84.764 75.4253L60.398 67.0354C59.6698 66.7838 59.0711 66.2536 58.7333 65.5611C58.3956 64.8686 58.3464 64.0704 58.5964 63.3417L71.9734 24.4922L101.835 34.7743L88.4578 73.6237C88.2062 74.352 87.676 74.9507 86.9835 75.2884C86.291 75.6262 85.4928 75.6754 84.764 75.4253ZM72.7117 26.0061L59.7216 63.7322C59.5759 64.1619 59.6061 64.6317 59.8057 65.0391C60.0053 65.4464 60.358 65.7583 60.7867 65.9065L85.1528 74.2964C85.5828 74.4439 86.0539 74.4148 86.4626 74.2155C86.8712 74.0162 87.1841 73.6629 87.3327 73.2332L100.321 35.5126L72.7117 26.0061Z" fill="black" stroke="black" stroke-width="2"/>
<path d="M99.7805 31.1722L75.8097 22.9184L77.7113 17.3957C77.8664 16.9478 78.1927 16.5796 78.6187 16.3719C79.0447 16.1641 79.5356 16.1336 79.984 16.2872L100.573 23.3764C101.021 23.5313 101.389 23.8575 101.597 24.2836C101.805 24.7097 101.836 25.2009 101.682 25.6495L99.7805 31.1722ZM77.3236 22.1801L99.0421 29.6584L100.556 25.2617C100.608 25.1113 100.598 24.9464 100.528 24.8034C100.458 24.6603 100.335 24.5509 100.184 24.4991L79.5973 17.4105C79.4468 17.3587 79.2819 17.3687 79.1389 17.4385C78.9959 17.5083 78.8864 17.632 78.8346 17.7824L77.3236 22.1801Z" fill="black" stroke="black" stroke-width="2"/>
<path d="M99.6612 24.322L80.1211 17.5938L83.1067 14.8144C83.4469 14.2134 84.3951 14.0365 85.4569 14.4021L97.4215 18.5219C98.4824 18.8872 99.1217 19.6107 99.0194 20.2947L99.6612 24.322ZM82.3848 17.1137L98.1749 22.5506L97.8045 20.2232L97.8279 20.1552C97.6199 19.9121 97.3445 19.7359 97.0366 19.649L85.0692 15.5282C84.7727 15.407 84.447 15.3761 84.133 15.4396L84.1096 15.5077L82.3848 17.1137Z" fill="black" stroke="black" stroke-width="2"/>
<path d="M81.0131 19.3033C80.8804 19.2433 80.7741 19.137 80.714 19.0044C80.6539 18.8718 80.644 18.7218 80.6863 18.5825C80.7286 18.4431 80.8201 18.3239 80.9438 18.2471C81.0675 18.1702 81.2149 18.141 81.3586 18.1648L98.6835 22.7257C98.8202 22.78 98.9322 22.8827 98.9982 23.0141C99.0642 23.1455 99.0796 23.2966 99.0415 23.4387C99.0034 23.5807 98.9145 23.7039 98.7916 23.7847C98.6687 23.8655 98.5204 23.8983 98.3749 23.877L81.0553 19.3158L81.0131 19.3033Z" fill="black" stroke="black" stroke-width="2"/>
<path d="M80.1156 21.9071C79.9828 21.8481 79.876 21.743 79.8149 21.6112C79.7537 21.4793 79.7425 21.3298 79.7833 21.1904C79.8241 21.0509 79.9141 20.931 80.0366 20.8529C80.1591 20.7748 80.3058 20.7438 80.4495 20.7656L97.9002 24.9489C97.9849 24.9583 98.0666 24.9855 98.1399 25.0288C98.2132 25.0722 98.2765 25.1306 98.3255 25.2003C98.3744 25.2699 98.408 25.3492 98.424 25.4329C98.4399 25.5166 98.4379 25.6027 98.418 25.6855C98.3981 25.7683 98.3608 25.8459 98.3086 25.9132C98.2564 25.9805 98.1905 26.0359 98.1152 26.0757C98.0399 26.1155 97.957 26.1389 97.872 26.1442C97.787 26.1495 97.7019 26.1366 97.6222 26.1065L80.1714 21.9232C80.1526 21.9188 80.1339 21.9134 80.1156 21.9071Z" fill="black" stroke="black" stroke-width="2"/>
<path d="M79.349 24.1361C79.2163 24.0761 79.11 23.9698 79.0499 23.8372C78.9898 23.7046 78.98 23.5546 79.0223 23.4152C79.0645 23.2759 79.1561 23.1567 79.2797 23.0798C79.4034 23.003 79.5508 22.9737 79.6945 22.9975L97.0195 27.5585C97.1573 27.6121 97.2704 27.7146 97.3372 27.8465C97.4041 27.9784 97.4198 28.1303 97.3816 28.2731C97.3433 28.4159 97.2536 28.5395 97.1298 28.6203C97.0059 28.701 96.8566 28.7332 96.7105 28.7107L79.3909 24.1495L79.349 24.1361Z" fill="black" stroke="black" stroke-width="2"/>
<path d="M96.6804 19.5252L85.423 15.649L88.1028 7.86646L99.3601 11.7427L96.6804 19.5252ZM86.9369 14.9107L95.943 18.0117L97.8472 12.4814L88.8411 9.38032L86.9369 14.9107Z" fill="black" stroke="black" stroke-width="2"/>
<path d="M97.0729 12.2148L89.6137 9.64644L90.5692 6.87134C90.8191 6.14796 91.3459 5.5533 92.0338 5.21791C92.7218 4.88253 93.5147 4.83382 94.2385 5.08249L96.2364 5.77042C96.9602 6.01993 97.5554 6.54645 97.8914 7.2344C98.2274 7.92235 98.2767 8.71551 98.0284 9.43975L97.0729 12.2148ZM91.1275 8.90808L96.3364 10.7016L96.9042 9.05265C97.0494 8.62674 97.0199 8.1606 96.822 7.75644C96.6242 7.35227 96.2741 7.04304 95.8486 6.89653L93.8507 6.20861C93.4244 6.06182 92.9573 6.09039 92.5521 6.28804C92.1468 6.48569 91.8367 6.83622 91.6899 7.26252L91.1275 8.90808Z" fill="black" stroke="black" stroke-width="2"/>
<path d="M61.7227 21.2564C61.7839 21.4369 61.7982 21.63 61.7643 21.8175C61.7303 22.005 61.6493 22.1809 61.5287 22.3284C61.4336 22.43 61.3192 22.5116 61.1923 22.5686C61.0653 22.6255 60.9283 22.6566 60.7892 22.6601C60.6501 22.6636 60.5117 22.6394 60.3821 22.5888C60.2525 22.5383 60.1342 22.4625 60.0341 22.3658C51.6276 14.3016 41.4627 12.6068 33.4579 17.9481C25.0298 23.5658 21.8446 34.9581 25.3036 47.021L25.4279 47.4545C25.4755 47.5891 25.4954 47.7319 25.4867 47.8743C25.4779 48.0168 25.4405 48.156 25.3767 48.2837C25.3129 48.4114 25.2241 48.525 25.1155 48.6176C25.0069 48.7102 24.8807 48.78 24.7446 48.8229C24.4663 48.8822 24.1758 48.8325 23.933 48.6839C23.6903 48.5354 23.5138 48.2994 23.44 48.0245L23.3157 47.591C19.5885 34.5928 23.0764 22.2534 32.282 16.0965C41.1299 10.1982 52.2388 11.9344 61.359 20.7355C61.5396 20.8592 61.6688 21.0443 61.7227 21.2564Z" fill="black"/>
<path d="M29.2581 41.834C29.3061 42.0314 29.3026 42.2378 29.2479 42.4334C29.1933 42.629 29.0893 42.8074 28.9459 42.9513C27.9024 44.1124 27.1358 45.4949 26.7037 46.995C26.3723 47.9074 25.9642 48.7901 25.4837 49.6335C25.3945 49.7894 25.2692 49.9217 25.1184 50.0193C24.9675 50.1168 24.7955 50.1768 24.6166 50.1942C24.4385 50.213 24.2584 50.1909 24.0901 50.1295C23.9218 50.0682 23.7697 49.9692 23.6454 49.8402C22.8198 48.891 22.0893 47.9977 21.3563 47.0958C20.6233 46.1939 19.8934 45.3099 19.1097 44.5068C19.005 44.3977 18.9239 44.2682 18.8715 44.1263C18.8191 43.9845 18.7966 43.8333 18.8052 43.6824C18.8139 43.5314 18.8535 43.3838 18.9218 43.2489C18.99 43.114 19.0853 42.9945 19.2018 42.8981C19.3111 42.7934 19.4409 42.7125 19.5829 42.6602C19.7249 42.608 19.8762 42.5857 20.0273 42.5946C20.1784 42.6035 20.326 42.6435 20.4609 42.7121C20.5958 42.7807 20.7151 42.8763 20.8113 42.9931C21.637 43.9423 22.3675 44.8356 23.1005 45.7375L24.199 47.0869C24.3201 46.802 24.421 46.5089 24.5009 46.2097C25.0243 44.4123 25.9588 42.7614 27.2305 41.3876C27.3321 41.2779 27.4556 41.1908 27.593 41.1318C27.7304 41.0728 27.8787 41.0433 28.0282 41.0451C28.1777 41.047 28.3251 41.0801 28.4611 41.1424C28.597 41.2047 28.7183 41.2948 28.8173 41.4069C28.9271 41.4208 29.0294 41.4699 29.1089 41.5469C29.1884 41.6239 29.2407 41.7247 29.2581 41.834Z" fill="black"/>
<path d="M49.8741 63.3531H37.6561C37.6561 60.5761 35.4341 57.7991 30.9911 57.7991H24.3261C19.8831 57.7991 17.6611 60.5761 17.6611 63.3531H5.44315C4.84576 63.2985 4.24367 63.376 3.67961 63.5801C3.11554 63.7843 2.60332 64.1101 2.17928 64.5344C1.75525 64.9587 1.42979 65.4712 1.22601 66.0354C1.02223 66.5996 0.94512 67.2017 1.00015 67.7991V74.4641H3.22215L8.22215 122.228C9.00014 130.003 12.1101 130.003 16.5531 130.003H38.7691C43.2121 130.003 46.3221 130.003 47.1001 122.228L52.1001 74.4641H54.3171V67.7991C54.3722 67.2017 54.2951 66.5996 54.0913 66.0354C53.8875 65.4712 53.562 64.9587 53.138 64.5344C52.714 64.1101 52.2018 63.7843 51.6377 63.5801C51.0736 63.376 50.4715 63.2985 49.8741 63.3531ZM24.3261 60.0211H30.9911C35.4341 60.0211 35.4341 63.3531 35.4341 63.3531H19.8831C19.8831 63.3531 19.8831 60.0211 24.3261 60.0211ZM44.8751 122.221C44.3201 127.775 42.6531 127.775 38.7661 127.775H16.5511C12.6631 127.775 10.9971 127.775 10.4421 122.221L5.44215 74.4571H49.8741L44.8751 122.221ZM52.1001 72.2391H3.22215V67.7991C3.22215 66.1331 3.77715 65.5771 5.44415 65.5771H49.8741C51.5401 65.5771 52.0961 66.1321 52.0961 67.7991L52.1001 72.2391Z" fill="black" stroke="black"/>
<path d="M36.5452 118.892H38.7672L40.9892 81.125H38.7672L36.5452 118.892Z" fill="black" stroke="black"/>
<path d="M28.7701 81.125H26.5481V118.892H28.7701V81.125Z" fill="black" stroke="black"/>
<path d="M16.5511 118.892H18.7731L16.5511 81.125H14.3291L16.5511 118.892Z" fill="black" stroke="black"/>
</svg>
