<svg width="80" height="72" viewBox="0 0 80 72" fill="none" xmlns="http://www.w3.org/2000/svg">
<path d="M0 68.8981C0 68.8981 3.653 65.7981 8.5 62.2981C13.347 58.7981 41.987 35.3981 42 35.3921L58.342 19.2471L8.87 55.3481C7.753 52.5361 7.487 48.7241 8.463 43.6111C14.663 11.0901 44.584 5.79007 51.663 4.63507C55.973 3.93507 78.63 1.03507 80.001 0.99707C79.752 2.31807 73.377 23.8321 72.011 27.9031C69.768 34.5851 59.861 62.7691 26.142 63.8181C22.5848 64.0675 19.0159 63.5428 15.681 62.2801L1.856 71.9971L0 68.8981Z" fill="#4EBA74"/>
</svg>
