<svg width="38" height="37" viewBox="0 0 38 37" fill="none" xmlns="http://www.w3.org/2000/svg">
<path d="M38 2.983L35.5 14.636C34.9382 16.3702 33.8269 17.8743 32.3343 18.9207C30.8417 19.9672 29.0488 20.4991 27.227 20.436H8.561L8.618 21.136C8.72964 21.8733 9.10923 22.5435 9.68414 23.0184C10.259 23.4933 10.9889 23.7396 11.734 23.71H32.756V25.758H11.734C10.4431 25.8084 9.17905 25.3807 8.18405 24.5567C7.18906 23.7328 6.53313 22.5706 6.342 21.293L5.164 6.362C4.99309 5.12986 4.36957 4.00548 3.41492 3.20797C2.46027 2.41046 1.24289 1.99694 0 2.048L0 0C3.9 0.013 7.141 2.722 7.437 6.216L8.4 18.391H27.231C28.5615 18.4371 29.871 18.0499 30.9625 17.2878C32.0541 16.5257 32.8688 15.4299 33.284 14.165L35.237 5.031H9.557C9.40166 4.31744 9.14966 3.62842 8.808 2.983H38Z" fill="white"/>
<path d="M13.5039 28.062C12.62 28.062 11.756 28.3241 11.0211 28.8152C10.2861 29.3062 9.71334 30.0042 9.3751 30.8208C9.03685 31.6374 8.94835 32.536 9.12079 33.4029C9.29322 34.2698 9.71885 35.0661 10.3439 35.6911C10.9689 36.3161 11.7652 36.7417 12.6321 36.9141C13.499 37.0866 14.3975 36.9981 15.2141 36.6598C16.0307 36.3216 16.7287 35.7488 17.2198 35.0139C17.7108 34.2789 17.9729 33.4149 17.9729 32.531C17.9729 31.3458 17.5021 30.2091 16.664 29.371C15.8259 28.5329 14.6892 28.062 13.5039 28.062ZM13.5039 34.115C13.1909 34.1148 12.885 34.0218 12.6248 33.8478C12.3647 33.6738 12.1619 33.4266 12.0422 33.1373C11.9225 32.8481 11.8913 32.5299 11.9524 32.2229C12.0135 31.916 12.1642 31.634 12.3856 31.4127C12.6069 31.1913 12.8889 31.0406 13.1958 30.9795C13.5028 30.9184 13.821 30.9496 14.1102 31.0693C14.3995 31.189 14.6467 31.3918 14.8207 31.6519C14.9947 31.9121 15.0877 32.218 15.0879 32.531C15.088 32.7391 15.0472 32.9451 14.9676 33.1373C14.8881 33.3296 14.7714 33.5043 14.6243 33.6514C14.4771 33.7985 14.3025 33.9151 14.1102 33.9947C13.918 34.0743 13.712 34.1151 13.5039 34.115Z" fill="white"/>
<path d="M26.718 28.062C25.8341 28.062 24.9701 28.3241 24.2352 28.8152C23.5003 29.3062 22.9275 30.0042 22.5892 30.8208C22.251 31.6374 22.1625 32.536 22.3349 33.4029C22.5073 34.2698 22.933 35.0661 23.558 35.6911C24.183 36.3161 24.9793 36.7417 25.8462 36.9141C26.7131 37.0866 27.6116 36.9981 28.4282 36.6598C29.2448 36.3216 29.9428 35.7488 30.4339 35.0139C30.9249 34.2789 31.187 33.4149 31.187 32.531C31.187 31.3458 30.7162 30.2091 29.8781 29.371C29.04 28.5329 27.9033 28.062 26.718 28.062ZM26.718 34.115C26.405 34.1148 26.0991 34.0218 25.8389 33.8478C25.5788 33.6738 25.376 33.4266 25.2563 33.1373C25.1366 32.8481 25.1054 32.5299 25.1665 32.2229C25.2276 31.916 25.3783 31.634 25.5997 31.4127C25.821 31.1913 26.103 31.0406 26.41 30.9795C26.7169 30.9184 27.0351 30.9496 27.3244 31.0693C27.6136 31.189 27.8608 31.3918 28.0348 31.6519C28.2088 31.9121 28.3018 32.218 28.302 32.531C28.3022 32.7391 28.2613 32.9451 28.1817 33.1373C28.1022 33.3296 27.9855 33.5043 27.8384 33.6514C27.6913 33.7985 27.5166 33.9151 27.3244 33.9947C27.1321 34.0743 26.9261 34.1151 26.718 34.115Z" fill="white"/>
</svg>
