<svg width="38" height="40" viewBox="0 0 38 40" fill="none" xmlns="http://www.w3.org/2000/svg">
<path d="M10.27 22.2178C9.86435 22.2178 9.46781 22.3381 9.13052 22.5634C8.79324 22.7888 8.53035 23.1091 8.37512 23.4839C8.21988 23.8587 8.17927 24.271 8.2584 24.6689C8.33754 25.0668 8.53288 25.4322 8.81972 25.7191C9.10656 26.0059 9.47201 26.2012 9.86986 26.2804C10.2677 26.3595 10.6801 26.3189 11.0549 26.1637C11.4297 26.0084 11.75 25.7455 11.9753 25.4082C12.2007 25.071 12.321 24.6744 12.321 24.2688C12.321 23.9994 12.2679 23.7327 12.1649 23.4839C12.0618 23.2351 11.9107 23.0089 11.7203 22.8185C11.5298 22.628 11.3037 22.477 11.0549 22.3739C10.806 22.2708 10.5393 22.2178 10.27 22.2178Z" fill="white"/>
<path d="M19 0L0 9.3V31.149L19 40L38 31.149V9.3L19 0ZM19 2.7L33.93 10.013L27.836 12.852L12.75 5.763L19 2.7ZM9.954 7.129L24.974 14.184L19.001 16.963L4.069 10.012L9.954 7.129ZM17.742 36.74L2.514 29.648V11.962L17.742 19.054V36.74ZM35.484 29.648L20.257 36.74V19.055L35.484 11.962V29.648Z" fill="white"/>
<path d="M30.2819 25.6431L22.2639 29.5581V32.7651L30.2819 28.8651V25.6431Z" fill="white"/>
</svg>
