<svg width="38" height="37" viewBox="0 0 38 37" fill="none" xmlns="http://www.w3.org/2000/svg">
<path d="M13.822 8.26855C12.9555 8.26855 12.1085 8.52544 11.388 9.00672C10.6675 9.488 10.106 10.1721 9.77441 10.9724C9.44282 11.7727 9.35606 12.6534 9.5251 13.503C9.69415 14.3527 10.1114 15.1331 10.7241 15.7457C11.3368 16.3582 12.1175 16.7754 12.9673 16.9444C13.8172 17.1134 14.698 17.0267 15.4986 16.6951C16.2991 16.3636 16.9834 15.8022 17.4648 15.082C17.9462 14.3617 18.2031 13.5148 18.2031 12.6486C18.2031 11.4869 17.7415 10.3728 16.9199 9.55143C16.0983 8.73002 14.984 8.26855 13.822 8.26855ZM13.822 14.7426C13.4076 14.7426 13.0024 14.6197 12.6578 14.3895C12.3132 14.1593 12.0446 13.8321 11.886 13.4493C11.7274 13.0665 11.6859 12.6452 11.7668 12.2388C11.8476 11.8324 12.0472 11.4592 12.3403 11.1662C12.6333 10.8732 13.0067 10.6736 13.4132 10.5928C13.8197 10.512 14.241 10.5535 14.6239 10.712C15.0068 10.8706 15.3341 11.1391 15.5644 11.4836C15.7946 11.8282 15.9175 12.2332 15.9175 12.6476C15.9177 12.9228 15.8636 13.1953 15.7583 13.4496C15.6531 13.7039 15.4987 13.9349 15.3041 14.1296C15.1095 14.3242 14.8785 14.4786 14.6242 14.584C14.3699 14.6893 14.0973 14.7436 13.822 14.7436V14.7426Z" fill="white"/>
<path d="M38 11.4913H27.4654C27.1631 9.62232 26.4773 7.83612 25.4512 6.24493C24.4251 4.65375 23.0808 3.29199 21.5029 2.24525H33.2058V0.01125H14.4011C14.01 -0.00375 13.6129 -0.00375 13.2238 0.01125H13.1708C10.7015 0.0985715 8.30214 0.854177 6.22857 2.19752C4.15501 3.54085 2.48493 5.42157 1.39639 7.63917C0.307844 9.85677 -0.158366 12.3281 0.0474585 14.7898C0.253283 17.2514 1.12343 19.6111 2.56513 21.6173L13.8189 37.0003L22.4401 25.2173H33.2098V22.9773H24.0745L25.0748 21.6063C26.7338 19.3103 27.632 16.5526 27.6434 13.7203H38V11.4913ZM23.2173 20.3173L13.8149 33.1663L4.42459 20.3173C3.18683 18.6315 2.44441 16.6338 2.28094 14.549C2.11748 12.4642 2.53946 10.3752 3.49936 8.51725C4.40614 6.68728 5.79238 5.13745 7.51046 4.03279C9.22855 2.92813 11.2141 2.31001 13.2558 2.24425H14.3841C16.4254 2.31036 18.4106 2.92865 20.1283 4.03329C21.846 5.13793 23.2319 6.68757 24.1385 8.51725C25.0993 10.3748 25.5222 12.4636 25.3594 14.5485C25.1967 16.6333 24.4548 18.6313 23.2173 20.3173Z" fill="white"/>
</svg>
