<?xml version="1.0" standalone="no"?>
<!DOCTYPE svg PUBLIC "-//W3C//DTD SVG 20010904//EN"
 "http://www.w3.org/TR/2001/REC-SVG-20010904/DTD/svg10.dtd">
<svg version="1.0" xmlns="http://www.w3.org/2000/svg"
 width="100.000000pt" height="100.000000pt" viewBox="0 0 100.000000 100.000000"
 preserveAspectRatio="xMidYMid meet">
<metadata>
Created by potrace 1.11, written by Peter Selinger 2001-2013
</metadata>
<g transform="translate(0.000000,100.000000) scale(0.100000,-0.100000)"
fill="#000000" stroke="none">
<path d="M209 978 c-1 -7 0 -28 1 -45 1 -18 -1 -33 -3 -33 -3 0 -33 16 -67 35
-34 19 -67 35 -74 35 -16 0 -15 -658 2 -716 16 -55 65 -126 120 -174 60 -53
159 -85 240 -77 138 14 226 27 260 38 99 32 210 143 232 233 6 23 15 49 20 59
7 12 7 17 -1 17 -8 0 -7 5 2 16 10 13 10 17 -2 25 -12 7 -12 9 1 9 9 0 11 3 5
8 -5 4 -11 16 -13 27 -7 51 -46 135 -82 177 -37 43 -94 79 -360 226 -25 14
-96 53 -157 88 -62 35 -115 64 -118 64 -3 0 -5 -6 -6 -12z m-14 -139 c41 -22
77 -44 80 -48 2 -4 5 -109 6 -232 1 -160 5 -233 15 -256 27 -66 125 -94 191
-53 83 50 83 171 0 227 -32 22 -33 23 -31 100 1 43 2 81 3 86 1 10 48 -2 91
-24 122 -62 192 -207 165 -340 -14 -66 -29 -95 -79 -149 -58 -63 -133 -94
-226 -93 -94 1 -157 29 -221 101 -73 81 -76 97 -78 430 -1 160 1 292 4 292 3
0 39 -18 80 -41z"/>
</g>
</svg>
