<svg width="32" height="58" viewBox="0 0 32 58" fill="none" xmlns="http://www.w3.org/2000/svg">
<path opacity="0.05" d="M0.00274658 28.8832C0.0276337 27.8911 0.419994 26.9435 1.10375 26.2243L25.1256 1.19725C25.8672 0.4444 26.8756 0.0143414 27.9322 0.000352218C28.9888 -0.0136369 30.0083 0.389572 30.7696 1.12252C31.5308 1.85547 31.9725 2.85905 31.9988 3.91558C32.025 4.97212 31.6337 5.99641 30.9098 6.76627L9.54741 29.0083L30.9098 51.2514C31.6263 52.0226 32.0113 53.0444 31.9819 54.0967C31.9526 55.149 31.5112 56.1477 30.7528 56.8777C29.9944 57.6077 28.9797 58.0107 27.9273 57.9998C26.8748 57.9889 25.8686 57.565 25.1256 56.8194L1.10375 31.7923C0.735487 31.4054 0.44836 30.9487 0.259275 30.4491C0.0701904 29.9494 -0.0170326 29.417 0.00274658 28.8832Z" fill="black"/>
</svg>
