<svg xmlns="http://www.w3.org/2000/svg" xmlns:xlink="http://www.w3.org/1999/xlink" width="17" height="14" viewBox="0 0 17 14"><defs><path id="a" d="M1044.08 2387.21l.01.42a9.46 9.46 0 0 1-9.81 9.27c-1.94 0-3.75-.54-5.28-1.46a7.38 7.38 0 0 0 5.1-1.35 3.45 3.45 0 0 1-3.22-2.26c.22.04.43.05.65.05.32 0 .62-.03.91-.11a3.3 3.3 0 0 1-2.76-3.19v-.04c.46.24.99.39 1.56.4a3.2 3.2 0 0 1-1.54-2.71c0-.59.17-1.15.47-1.63a10 10 0 0 0 7.11 3.4 3.06 3.06 0 0 1-.09-.74c0-1.8 1.54-3.26 3.45-3.26.99 0 1.88.4 2.51 1.03a7.24 7.24 0 0 0 2.19-.79c-.25.76-.8 1.4-1.51 1.8a7.3 7.3 0 0 0 1.98-.51 6.91 6.91 0 0 1-1.73 1.68"/></defs><desc>Generated with Avocode.</desc><g transform="translate(-1029 -2383)"><use fill="#fff" xlink:href="#a"/></g></svg>